<?xml version="1.0" encoding="UTF-8"?>
<svg width="100px" height="100px" viewBox="0 0 100 100" version="1.1" xmlns="http://www.w3.org/2000/svg" xmlns:xlink="http://www.w3.org/1999/xlink">
    <title>favicon</title>
    <g id="favicon" stroke="none" stroke-width="1" fill="none" fill-rule="evenodd">
        <path d="M26.0037364,65.5700935 L40.9001129,65.8040577 C40.8551645,68.1211318 41.8466533,70.3573093 43.6518332,72.0102152 C45.4570132,73.663121 47.9245169,74.5941562 50.5,74.5941562 L50.5,88 C43.9280777,88 37.6316888,85.6242551 33.0253675,81.4064953 C28.4190463,77.1887355 25.8890406,71.4826273 26.0037364,65.5700935 Z M50.5,43.8411215 C57.0719223,43.8411215 63.3683112,46.2168664 67.9746325,50.4346262 C72.5809537,54.652386 75.1109594,60.3584942 74.9962636,66.271028 L60.0998871,66.0370638 C60.1448355,63.7199897 59.1533467,61.4838122 57.3481668,59.8309063 C55.5429868,58.1780005 53.0754831,57.2469653 50.5,57.2469653 L50.5,43.8411215 Z M26.0037364,34.728972 L40.9001129,34.9629362 C40.8551645,37.2800103 41.8466533,39.5161878 43.6518332,41.1690937 C45.4570132,42.8219995 47.9245169,43.7530347 50.5,43.7530347 L50.5,57.1588785 C43.9280777,57.1588785 37.6316888,54.7831336 33.0253675,50.5653738 C28.4190463,46.347614 25.8890406,40.6415058 26.0037364,34.728972 Z M50.5,13 C57.0719223,13 63.3683112,15.3757449 67.9746325,19.5935047 C72.5809537,23.8112645 75.1109594,29.5173727 74.9962636,35.4299065 L60.0998871,35.1959423 C60.1448355,32.8788682 59.1533467,30.6426907 57.3481668,28.9897848 C55.5429868,27.336879 53.0754831,26.4058438 50.5,26.4058438 L50.5,13 Z" id="Combined-Shape-Copy-2" fill="#212121"></path>
    </g>
</svg>