<?xml version="1.0" encoding="UTF-8"?>
<svg width="124px" height="124px" viewBox="0 0 124 124" version="1.1" xmlns="http://www.w3.org/2000/svg" xmlns:xlink="http://www.w3.org/1999/xlink">
    <title>logo-white@2x</title>
    <g id="logo-white" stroke="none" stroke-width="1" fill="none" fill-rule="evenodd">
        <path d="M32.0045752,79.7850467 L50.2450362,80.0689233 C50.1899974,82.8803065 51.4040652,85.5935353 53.6144897,87.5990611 C55.8249141,89.6045868 58.8463472,90.7342429 62,90.7342429 L62,107 C53.9527481,107 46.2428842,104.117429 40.6024909,98.9998809 C34.9620975,93.8823324 31.8641313,86.9589211 32.0045752,79.7850467 Z M32.0045752,42.364486 L50.2450362,42.6483626 C50.1899974,45.4597458 51.4040652,48.1729745 53.6144897,50.1785003 C55.8249141,52.1840261 58.8463472,53.3136821 62,53.3136821 L62,53.4205607 C70.0472519,53.4205607 77.7571158,56.3031313 83.3975091,61.4206798 C89.0379025,66.5382284 92.1358687,73.4616397 91.9954248,80.635514 L73.7549638,80.3516374 C73.8100026,77.5402542 72.5959348,74.8270255 70.3855103,72.8214997 C68.1750859,70.8159739 65.1536528,69.6863179 62,69.6863179 L62,69.5794393 C53.9527481,69.5794393 46.2428842,66.6968687 40.6024909,61.5793202 C34.9620975,56.4617716 31.8641313,49.5383603 32.0045752,42.364486 Z M62,16 C70.0472519,16 77.7571158,18.8825705 83.3975091,24.0001191 C89.0379025,29.1176676 92.1358687,36.0410789 91.9954248,43.2149533 L73.7549638,42.9310767 C73.8100026,40.1196935 72.5959348,37.4064647 70.3855103,35.4009389 C68.1750859,33.3954132 65.1536528,32.2657571 62,32.2657571 L62,16 Z" id="Combined-Shape-Copy-2" fill="#FFFFFF"></path>
    </g>
</svg>