<?xml version="1.0" encoding="UTF-8"?>
<svg width="69px" height="27px" viewBox="0 0 69 27" version="1.1" xmlns="http://www.w3.org/2000/svg" xmlns:xlink="http://www.w3.org/1999/xlink">
    <title>title-black</title>
    <g id="title-black" stroke="none" stroke-width="1" fill="none" fill-rule="evenodd">
        <g id="Group" transform="translate(1.652497, 2.582191)">
            <path d="M4.79696013,13.0135497 C7.48405397,13.0135497 9.65363345,11.9504155 9.65363345,9.07601575 C9.65363345,4.21316132 2.80652024,6.28036664 2.80652024,3.72096958 C2.80652024,2.44127105 3.82164458,2.30345736 4.97609972,2.30345736 C6.50873843,2.30345736 8.33994313,2.89408745 8.89726629,3.13033949 L8.89726629,0.689068441 C7.84233315,0.275627376 6.26988564,2.84217094e-14 4.99600412,2.84217094e-14 C2.24919707,2.84217094e-14 1.59872116e-14,1.02375883 1.59872116e-14,3.93753395 C1.59872116e-14,8.76101303 6.84711321,6.61505703 6.84711321,9.11539109 C6.84711321,10.2179006 6.05093726,10.5919663 4.51829854,10.5919663 C3.06527743,10.5919663 1.39330792,10.0407116 0.35827918,9.50914448 L0.35827918,12.1276046 C1.65206511,12.7182346 3.24441702,13.0135497 4.79696013,13.0135497 Z M14.4545745,12.6591716 L14.4545745,8.91851439 C15.0716108,9.05632808 15.9872132,9.09570342 16.6440583,9.09570342 C19.2515346,9.09570342 21.7992976,7.89475556 21.7992976,4.62660239 C21.7992976,2.22470668 20.4258941,0.216564367 16.7236759,0.216564367 L11.7674806,0.216564367 L11.7674806,12.6591716 L14.4545745,12.6591716 Z M16.2658748,6.85130907 C15.7881692,6.85130907 14.93228,6.8316214 14.4545745,6.73318305 L14.4545745,2.5397094 L16.5644407,2.5397094 C18.4951674,2.5397094 18.9927774,3.4453422 18.9927774,4.56753938 C18.9927774,6.2409913 17.8184179,6.85130907 16.2658748,6.85130907 Z M26.6002386,12.6591716 L26.6002386,0.216564367 L23.9131448,0.216564367 L23.9131448,12.6591716 L26.6002386,12.6591716 Z M32.2968776,12.6591716 L32.2968776,8.07194459 C32.9537228,8.15069527 33.5508547,8.19007061 34.0882735,8.19007061 C34.3669351,8.19007061 34.6256923,8.19007061 34.8844495,8.17038294 L37.3127861,12.6591716 L40.2785416,12.6591716 L37.4123081,7.50100217 C38.8454248,6.73318305 39.3430348,5.39442151 39.3430348,4.01628463 C39.3430348,1.71282727 37.9298225,0.216564367 34.7451187,0.216564367 L29.6296882,0.216564367 L29.6296882,12.6591716 L32.2968776,12.6591716 Z M34.1280823,5.9850516 C33.4911415,5.9850516 32.8342964,5.88661325 32.2968776,5.7881749 L32.2968776,2.50033406 L34.2873175,2.50033406 C35.760243,2.50033406 36.6161322,3.01221347 36.6161322,4.13441064 C36.6161322,5.61098587 35.4019638,5.9850516 34.1280823,5.9850516 Z M42.9953274,12.6591716 L44.0104517,10.4738403 L49.563779,10.4738403 L50.5988077,12.6591716 L53.5247544,12.6591716 L47.1553467,0.216564367 L46.418884,0.216564367 L40.2087115,12.6591716 L42.9953274,12.6591716 Z M48.5884634,8.38694731 L44.9857672,8.38694731 L46.7771631,4.54785171 L48.5884634,8.38694731 Z M63.6600743,12.6591716 L63.6600743,10.3163389 L57.5295194,10.3163389 L57.5295194,0.216564367 L54.8424256,0.216564367 L54.8424256,12.6591716 L63.6600743,12.6591716 Z" id="Combined-Shape-Copy-2" fill="#000000" transform="translate(31.830037, 6.506775) rotate(-720.000000) translate(-31.830037, -6.506775) "></path>
            <path d="M3.15642451,21.3256372 L3.15642451,17.2715205 L4.77253977,17.2715205 L4.77253977,16.3408089 L0.489834337,16.3408089 L0.489834337,17.2715205 L2.1059496,17.2715205 L2.1059496,21.3256372 L3.15642451,21.3256372 Z M9.25079516,21.3256372 L9.25079516,20.3949256 L6.46299633,20.3949256 L6.46299633,19.2749167 L8.87908865,19.2749167 L8.87908865,18.3442051 L6.46299633,18.3442051 L6.46299633,17.2715205 L9.21847285,17.2715205 L9.21847285,16.3408089 L5.38827969,16.3408089 L5.38827969,21.3256372 L9.25079516,21.3256372 Z M12.403836,21.4676101 C13.0017987,21.4676101 13.5593584,21.3571867 14.0845959,21.0811282 L14.0845959,19.9926688 C13.6644059,20.2687274 13.1149267,20.4422499 12.5492864,20.4422499 C11.6927453,20.4422499 10.9574129,19.8980202 10.9250906,18.87266 C10.9250906,17.8630745 11.5957784,17.2794079 12.6220116,17.2794079 C13.1149267,17.2794079 13.5755196,17.3503944 14.044193,17.5949034 L14.044193,16.5695431 C13.5351167,16.3565837 13.0583627,16.2540477 12.5331252,16.2540477 C10.8523654,16.2540477 9.72916527,17.3030701 9.72916527,18.87266 C9.72916527,20.3476012 10.8119625,21.4676101 12.403836,21.4676101 Z M16.0336309,21.3256372 L16.0336309,19.3064662 L18.3123534,19.3064662 L18.3123534,21.3256372 L19.4032312,21.3256372 L19.4032312,16.3408089 L18.3123534,16.3408089 L18.3123534,18.3442051 L16.0336309,18.3442051 L16.0336309,16.3408089 L14.9427531,16.3408089 L14.9427531,21.3256372 L16.0336309,21.3256372 Z M21.6754893,21.3256372 L21.6754893,18.3520925 L24.7622694,21.3256372 L25.1258953,21.3256372 L25.1258953,16.3408089 L24.083501,16.3408089 L24.083501,19.3064662 L20.9724791,16.3408089 L20.6330949,16.3408089 L20.6330949,21.3256372 L21.6754893,21.3256372 Z M28.7799319,21.4676101 C30.4041278,21.4676101 31.4707639,20.3949256 31.486925,18.8568852 C31.4707639,17.3109574 30.4041278,16.2540477 28.7799319,16.2540477 C27.1718973,16.2540477 26.0810195,17.3109574 26.0648583,18.8568852 C26.0810195,20.3949256 27.1718973,21.4676101 28.7799319,21.4676101 Z M28.7799319,20.4737994 C27.882988,20.4737994 27.2203807,19.8585833 27.2203807,18.8568852 C27.2203807,17.8551871 27.882988,17.2320836 28.7799319,17.2320836 C29.6768759,17.2320836 30.3475637,17.8551871 30.3475637,18.8568852 C30.3475637,19.8585833 29.6768759,20.4737994 28.7799319,20.4737994 Z M36.0055833,21.3256372 L36.0055833,20.3870382 L33.5167658,20.3870382 L33.5167658,16.3408089 L32.425888,16.3408089 L32.425888,21.3256372 L36.0055833,21.3256372 Z M38.8192399,21.4676101 C40.4434358,21.4676101 41.5100718,20.3949256 41.526233,18.8568852 C41.5100718,17.3109574 40.4434358,16.2540477 38.8192399,16.2540477 C37.2112053,16.2540477 36.1203275,17.3109574 36.1041663,18.8568852 C36.1203275,20.3949256 37.2112053,21.4676101 38.8192399,21.4676101 Z M38.8192399,20.4737994 C37.922296,20.4737994 37.2596887,19.8585833 37.2596887,18.8568852 C37.2596887,17.8551871 37.922296,17.2320836 38.8192399,17.2320836 C39.7161839,17.2320836 40.3868717,17.8551871 40.3868717,18.8568852 C40.3868717,19.8585833 39.7161839,20.4737994 38.8192399,20.4737994 Z M44.8570465,21.4676101 C45.4550092,21.4676101 46.3196309,21.3414119 46.8448683,21.057466 L46.8448683,18.5492771 L44.7439185,18.5492771 L44.7439185,19.4168896 L45.8994409,19.4168896 L45.8994409,20.3949256 C45.6327819,20.4895742 45.2449142,20.5211237 44.962094,20.5211237 C44.1217141,20.5211237 43.3459788,20.0794301 43.321737,18.87266 C43.321737,17.792088 44.0570695,17.2715205 45.1317861,17.2715205 C45.6731847,17.2715205 46.2469057,17.3898313 46.6428539,17.5949034 L46.6428539,16.5774305 C46.1337776,16.3565837 45.5115732,16.2540477 44.9863358,16.2540477 C43.3136565,16.2540477 42.1742952,17.3030701 42.1742952,18.87266 C42.1742952,20.3476012 43.265173,21.4676101 44.8570465,21.4676101 Z M50.3615351,21.3256372 L50.3615351,19.5194257 L52.3493569,16.3408089 L51.1049481,16.3408089 L49.8120559,18.5650519 L48.5272443,16.3408089 L47.2828355,16.3408089 L49.2706573,19.5194257 L49.2706573,21.3256372 L50.3615351,21.3256372 Z" id="TECHNOLOGY-Copy" fill="#231F20" fill-rule="nonzero"></path>
        </g>
    </g>
</svg>