<?xml version="1.0" encoding="UTF-8"?>
<svg width="69px" height="27px" viewBox="0 0 69 27" version="1.1" xmlns="http://www.w3.org/2000/svg" xmlns:xlink="http://www.w3.org/1999/xlink">
    <title>title-white</title>
    <g id="title-white" stroke="none" stroke-width="1" fill="none" fill-rule="evenodd">
        <path d="M30.4324288,18.8362384 C32.0566246,18.8362384 33.1232607,19.8931482 33.1394218,21.4390759 C33.1232607,22.9771163 32.0566246,24.0498009 30.4324288,24.0498009 C28.8243941,24.0498009 27.7335163,22.9771163 27.7173551,21.4390759 C27.7335163,19.8931482 28.8243941,18.8362384 30.4324288,18.8362384 Z M46.6388326,18.8362384 C47.16407,18.8362384 47.7862744,18.9387744 48.2953507,19.1596213 L48.2953507,19.1596213 L48.2953507,20.1770941 C47.8994025,19.9720221 47.3256816,19.8537113 46.7842829,19.8537113 C45.7095663,19.8537113 44.9742339,20.3742788 44.9742339,21.4548507 C44.9984756,22.6616208 45.7742109,23.1033145 46.6145908,23.1033145 C46.897411,23.1033145 47.2852787,23.0717649 47.5519377,22.9771163 L47.5519377,22.9771163 L47.5519377,21.9990804 L46.3964153,21.9990804 L46.3964153,21.1314679 L48.4973651,21.1314679 L48.4973651,23.6396568 C47.9721277,23.9236027 47.107506,24.0498009 46.5095434,24.0498009 C44.9176698,24.0498009 43.826792,22.929792 43.826792,21.4548507 C43.826792,19.8852608 44.9661533,18.8362384 46.6388326,18.8362384 Z M40.4717367,18.8362384 C42.0959326,18.8362384 43.1625687,19.8931482 43.1787298,21.4390759 C43.1625687,22.9771163 42.0959326,24.0498009 40.4717367,24.0498009 C38.8637021,24.0498009 37.7728243,22.9771163 37.7566631,21.4390759 C37.7728243,19.8931482 38.8637021,18.8362384 40.4717367,18.8362384 Z M14.1856221,18.8362384 C14.7108595,18.8362384 15.1876135,18.9387744 15.6966898,19.1517339 L15.6966898,19.1517339 L15.6966898,20.1770941 C15.2280164,19.9325851 14.7674236,19.8615986 14.2745084,19.8615986 C13.2482752,19.8615986 12.5775874,20.4452652 12.5775874,21.4548507 C12.6099097,22.480211 13.3452421,23.0244406 14.2017832,23.0244406 C14.7674236,23.0244406 15.3169027,22.8509181 15.7370927,22.5748596 L15.7370927,22.5748596 L15.7370927,23.6633189 C15.2118552,23.9393775 14.6542955,24.0498009 14.0563328,24.0498009 C12.4644593,24.0498009 11.3816621,22.929792 11.3816621,21.4548507 C11.3816621,19.8852608 12.5048622,18.8362384 14.1856221,18.8362384 Z M50.1797411,18.9229997 L51.4645527,21.1472426 L52.7574449,18.9229997 L54.0018537,18.9229997 L52.0140319,22.1016164 L52.0140319,23.9078279 L50.9231541,23.9078279 L50.9231541,22.1016164 L48.9353324,18.9229997 L50.1797411,18.9229997 Z M35.1692626,18.9229997 L35.1692626,22.9692289 L37.6580801,22.9692289 L37.6580801,23.9078279 L34.0783848,23.9078279 L34.0783848,18.9229997 L35.1692626,18.9229997 Z M22.6249759,18.9229997 L25.7359978,21.888657 L25.7359978,18.9229997 L26.7783922,18.9229997 L26.7783922,23.9078279 L26.4147662,23.9078279 L23.3279861,20.9342832 L23.3279861,23.9078279 L22.2855917,23.9078279 L22.2855917,18.9229997 L22.6249759,18.9229997 Z M17.6861277,18.9229997 L17.6861277,20.9263958 L19.9648502,20.9263958 L19.9648502,18.9229997 L21.055728,18.9229997 L21.055728,23.9078279 L19.9648502,23.9078279 L19.9648502,21.888657 L17.6861277,21.888657 L17.6861277,23.9078279 L16.5952499,23.9078279 L16.5952499,18.9229997 L17.6861277,18.9229997 Z M10.8709697,18.9229997 L10.8709697,19.8537113 L8.11549315,19.8537113 L8.11549315,20.9263958 L10.5315855,20.9263958 L10.5315855,21.8571074 L8.11549315,21.8571074 L8.11549315,22.9771163 L10.903292,22.9771163 L10.903292,23.9078279 L7.0407765,23.9078279 L7.0407765,18.9229997 L10.8709697,18.9229997 Z M6.42503658,18.9229997 L6.42503658,19.8537113 L4.80892133,19.8537113 L4.80892133,23.9078279 L3.75844641,23.9078279 L3.75844641,19.8537113 L2.14233115,19.8537113 L2.14233115,18.9229997 L6.42503658,18.9229997 Z M40.4717367,19.8142743 C39.5747928,19.8142743 38.9121855,20.4373779 38.9121855,21.4390759 C38.9121855,22.440774 39.5747928,23.0559902 40.4717367,23.0559902 C41.3686807,23.0559902 42.0393685,22.440774 42.0393685,21.4390759 C42.0393685,20.4373779 41.3686807,19.8142743 40.4717367,19.8142743 Z M30.4324288,19.8142743 C29.5354848,19.8142743 28.8728775,20.4373779 28.8728775,21.4390759 C28.8728775,22.440774 29.5354848,23.0559902 30.4324288,23.0559902 C31.3293727,23.0559902 32.0000606,22.440774 32.0000606,21.4390759 C32.0000606,20.4373779 31.3293727,19.8142743 30.4324288,19.8142743 Z M6.64850093,2.58219075 C7.92238245,2.58219075 9.49482997,2.85781812 10.5497631,3.27125919 L10.5497631,3.27125919 L10.5497631,5.71253023 C9.99243994,5.4762782 8.16123524,4.8856481 6.62859653,4.8856481 C5.47414139,4.8856481 4.45901705,5.02346179 4.45901705,6.30316032 C4.45901705,8.86255739 11.3061303,6.79535207 11.3061303,11.6582065 C11.3061303,14.5326063 9.13655079,15.5957404 6.44945694,15.5957404 C4.89691383,15.5957404 3.30456192,15.3004254 2.01077599,14.7097953 L2.01077599,14.7097953 L2.01077599,12.0913352 C3.04580473,12.6229023 4.71777424,13.1741571 6.17079535,13.1741571 C7.70343407,13.1741571 8.49961002,12.8000913 8.49961002,11.6975818 C8.49961002,9.19724778 1.65249681,11.3432038 1.65249681,6.51972469 C1.65249681,3.60594957 3.90169388,2.58219075 6.64850093,2.58219075 Z M59.1820162,2.79875511 L59.1820162,12.8985297 L65.3125711,12.8985297 L65.3125711,15.2413624 L56.4949224,15.2413624 L56.4949224,2.79875511 L59.1820162,2.79875511 Z M48.8078435,2.79875511 L55.1772512,15.2413624 L52.2513045,15.2413624 L51.2162758,13.056031 L45.6629485,13.056031 L44.6478242,15.2413624 L41.9310384,15.2413624 L41.8934968,15.1751907 L48.0713808,2.79875511 L48.8078435,2.79875511 Z M36.3976155,2.79875511 C39.5823193,2.79875511 40.9955316,4.29501801 40.9955316,6.59847537 C40.9955316,7.97661225 40.4979216,9.31537379 39.0648049,10.0831929 L39.0648049,10.0831929 L41.8934968,15.1751907 L41.8612083,15.2413624 L38.9652829,15.2413624 L36.5369463,10.7525737 C36.2781891,10.7722614 36.0194319,10.7722614 35.7407703,10.7722614 C35.2033515,10.7722614 34.6062196,10.732886 33.9493744,10.6541353 L33.9493744,10.6541353 L33.9493744,15.2413624 L31.282185,15.2413624 L31.282185,2.79875511 Z M28.2527355,2.79875511 L28.2527355,15.2413624 L25.5656416,15.2413624 L25.5656416,2.79875511 L28.2527355,2.79875511 Z M18.3761727,2.79875511 C22.0783909,2.79875511 23.4517945,4.80689743 23.4517945,7.20879313 C23.4517945,10.4769463 20.9040314,11.6778942 18.2965551,11.6778942 C17.63971,11.6778942 16.7241076,11.6385188 16.1070713,11.5007051 L16.1070713,11.5007051 L16.1070713,15.2413624 L13.4199774,15.2413624 L13.4199774,2.79875511 Z M48.42966,7.13004245 L46.6382641,10.9691381 L50.2409603,10.9691381 L48.42966,7.13004245 Z M18.2169375,5.12190014 L16.1070713,5.12190014 L16.1070713,9.31537379 C16.5847768,9.41381214 17.440666,9.43349981 17.9183716,9.43349981 C19.4709147,9.43349981 20.6452742,8.82318205 20.6452742,7.14973012 C20.6452742,6.02753295 20.1476642,5.12190014 18.2169375,5.12190014 L18.2169375,5.12190014 Z M35.9398143,5.0825248 L33.9493744,5.0825248 L33.9493744,8.37036565 C34.4867932,8.468804 35.1436383,8.56724234 35.7805791,8.56724234 C37.0544606,8.56724234 38.268629,8.19317662 38.268629,6.71660139 C38.268629,5.59440421 37.4127398,5.0825248 35.9398143,5.0825248 L35.9398143,5.0825248 Z" id="Combined-Shape" fill="#FFFFFF"></path>
    </g>
</svg>